# xmcd CD database file generated by Grip 3.2.0
# 
# Track frame offsets:
#       182
#       16690
#       37140
#       52262
#       64532
#       78770
#       95770
#       112875
#       133390
#       145362
#       169122
#       177917
#       190672
# 
# Disc length: 2728 seconds
# 
# Revision: 1
# Processed by: cddbd v1.5.2PL0 Copyright (c) Steve Scherf et al.
# Submitted via: Grip 3.2.0
# 
DISCID=b20aa60d
DTITLE=Ray Charles - Genius and Soul =Jazz
DYEAR=1988
DGENRE=Jazz
TTITLE0=From the Heart
TTITLE1=I've Got News for You
TTITLE2=Moanin
TTITLE3=Let's Go
TTITLE4=One Mint Julep
TTITLE5=I'm Gonna Move to the Outskirts of Town
TTITLE6=Stompin Room Only
TTITLE7=Mister C
TTITLE8=Strike Up the Band
TTITLE9=Birth of the Blues
TTITLE10=Alabamy Bound
TTITLE11=Basin street Blues
TTITLE12=New York's My Home
EXTD=
EXTT0=
EXTT1=
EXTT2=
EXTT3=
EXTT4=
EXTT5=
EXTT6=
EXTT7=
EXTT8=
EXTT9=
EXTT10=
EXTT11=
EXTT12=
PLAYORDER=
